<svg width="24" height="24" viewBox="0 0 24 24" fill="none" xmlns="http://www.w3.org/2000/svg">
<g id="search">
<g id="Group">
<path id="Vector" d="M15.8 14.3H15L14.7 14C15.7 12.9 16.3 11.4 16.3 9.8C16.3 6.2 13.4 3.3 9.79999 3.3C6.19999 3.3 3.29999 6.2 3.29999 9.8C3.29999 13.4 6.19999 16.3 9.79999 16.3C11.4 16.3 12.9 15.7 14 14.7L14.3 15V15.8L19.3 20.8L20.8 19.3L15.8 14.3ZM9.79999 14.3C7.29999 14.3 5.29999 12.3 5.29999 9.8C5.29999 7.3 7.29999 5.3 9.79999 5.3C12.3 5.3 14.3 7.3 14.3 9.8C14.3 12.3 12.3 14.3 9.79999 14.3Z" fill="#CBD5FF"/>
</g>
</g>
</svg>
