<svg width="32" height="32" viewBox="0 0 32 32" fill="none" xmlns="http://www.w3.org/2000/svg">
<g id="spinner" clip-path="url(#clip0)">
<path id="Vector" opacity="0.25" d="M16 0C11.7565 0 7.68687 1.68571 4.68629 4.68629C1.68571 7.68687 0 11.7565 0 16C0 20.2435 1.68571 24.3131 4.68629 27.3137C7.68687 30.3143 11.7565 32 16 32C20.2435 32 24.3131 30.3143 27.3137 27.3137C30.3143 24.3131 32 20.2435 32 16C32 11.7565 30.3143 7.68687 27.3137 4.68629C24.3131 1.68571 20.2435 0 16 0V0ZM16 4C19.1826 4 22.2348 5.26428 24.4853 7.51472C26.7357 9.76516 28 12.8174 28 16C28 19.1826 26.7357 22.2348 24.4853 24.4853C22.2348 26.7357 19.1826 28 16 28C12.8174 28 9.76516 26.7357 7.51472 24.4853C5.26428 22.2348 4 19.1826 4 16C4 12.8174 5.26428 9.76516 7.51472 7.51472C9.76516 5.26428 12.8174 4 16 4" fill="#CBD5FF"/>
<path id="Vector_2" d="M16 0C20.2435 0 24.3131 1.68571 27.3137 4.68629C30.3143 7.68687 32 11.7565 32 16H28C28 12.8174 26.7357 9.76516 24.4853 7.51472C22.2348 5.26428 19.1826 4 16 4V0Z" fill="#CBD5FF"/>
</g>
<defs>
<clipPath id="clip0">
<rect width="32" height="32" fill="white"/>
</clipPath>
</defs>
</svg>
