<svg width="24" height="24" viewBox="0 0 24 24" fill="none" xmlns="http://www.w3.org/2000/svg">
<g id="info-toggle">
<g id="Vector">
<path d="M13.5 8C13.5 7.17157 12.8284 6.5 12 6.5C11.1716 6.5 10.5 7.17157 10.5 8C10.5 8.82843 11.1716 9.5 12 9.5C12.8284 9.5 13.5 8.82843 13.5 8Z" fill="url(#paint0_linear)"/>
<path d="M21.5 12C21.5 6.75329 17.2467 2.5 12 2.5C6.75329 2.5 2.5 6.75329 2.5 12C2.5 17.2467 6.75329 21.5 12 21.5C17.2467 21.5 21.5 17.2467 21.5 12Z" fill="url(#paint1_linear)"/>
<path d="M13.5 8C13.5 7.17157 12.8284 6.5 12 6.5C11.1716 6.5 10.5 7.17157 10.5 8C10.5 8.82843 11.1716 9.5 12 9.5C12.8284 9.5 13.5 8.82843 13.5 8Z" stroke="#CBD5FF" stroke-linecap="round" stroke-linejoin="round"/>
<path d="M21.5 12C21.5 6.75329 17.2467 2.5 12 2.5C6.75329 2.5 2.5 6.75329 2.5 12C2.5 17.2467 6.75329 21.5 12 21.5C17.2467 21.5 21.5 17.2467 21.5 12Z" stroke="#CBD5FF" stroke-linecap="round" stroke-linejoin="round"/>
</g>
</g>
<defs>
<linearGradient id="paint0_linear" x1="2.5" y1="2.5" x2="16.2509" y2="17.6388" gradientUnits="userSpaceOnUse">
<stop stop-color="#434A65"/>
<stop offset="1" stop-color="#373C53"/>
</linearGradient>
<linearGradient id="paint1_linear" x1="2.5" y1="2.5" x2="16.2509" y2="17.6388" gradientUnits="userSpaceOnUse">
<stop stop-color="#434A65"/>
<stop offset="1" stop-color="#373C53"/>
</linearGradient>
</defs>
</svg>
