<svg width="24" height="24" viewBox="0 0 24 24" fill="none" xmlns="http://www.w3.org/2000/svg">
<g id="search">
<g id="Vector">
<path d="M14.5 9.5C14.5 6.73858 12.2614 4.5 9.5 4.5C6.73858 4.5 4.5 6.73858 4.5 9.5C4.5 12.2614 6.73858 14.5 9.5 14.5C10.8807 14.5 12.1307 13.9404 13.0355 13.0355C13.9404 12.1307 14.5 10.8807 14.5 9.5Z" fill="url(#paint0_linear)"/>
<path d="M19.5 19.5L13.0355 13.0355M13.0355 13.0355C13.9404 12.1307 14.5 10.8807 14.5 9.5C14.5 6.73858 12.2614 4.5 9.5 4.5C6.73858 4.5 4.5 6.73858 4.5 9.5C4.5 12.2614 6.73858 14.5 9.5 14.5C10.8807 14.5 12.1307 13.9404 13.0355 13.0355ZM9.5 6.5C11.1569 6.5 12.5 7.84315 12.5 9.5" stroke="#CBD5FF" stroke-linecap="round" stroke-linejoin="round"/>
</g>
</g>
<defs>
<linearGradient id="paint0_linear" x1="4.5" y1="4.5" x2="15.356" y2="16.4517" gradientUnits="userSpaceOnUse">
<stop stop-color="#434A65"/>
<stop offset="1" stop-color="#373C53"/>
</linearGradient>
</defs>
</svg>
