<svg width="24" height="24" viewBox="0 0 24 24" fill="none" xmlns="http://www.w3.org/2000/svg">
<g id="search-alt">
<g id="Vector">
<path fill-rule="evenodd" clip-rule="evenodd" d="M15.5858 15H15V15.5858C15 15.851 15.1054 16.1054 15.2929 16.2929L18.5 19.5C18.7761 19.7761 19.2239 19.7761 19.5 19.5C19.7761 19.2239 19.7761 18.7761 19.5 18.5L16.2929 15.2929C16.1054 15.1054 15.851 15 15.5858 15Z" fill="url(#paint0_linear)"/>
<path d="M14.5 9.5C14.5 6.73858 12.2614 4.5 9.5 4.5C6.73858 4.5 4.5 6.73858 4.5 9.5C4.5 12.2614 6.73858 14.5 9.5 14.5C10.8807 14.5 12.1307 13.9404 13.0355 13.0355C13.9404 12.1307 14.5 10.8807 14.5 9.5Z" fill="url(#paint1_linear)"/>
<path d="M19.5 19.5V19.5C19.7761 19.2239 19.7761 18.7761 19.5 18.5V18.5M19.5 19.5V19.5C19.2239 19.7761 18.7761 19.7761 18.5 19.5V19.5M19.5 19.5C19.7761 19.2239 19.7761 18.7761 19.5 18.5M19.5 19.5C19.2239 19.7761 18.7761 19.7761 18.5 19.5M13.0355 13.0355C13.9404 12.1307 14.5 10.8807 14.5 9.5C14.5 6.73858 12.2614 4.5 9.5 4.5C6.73858 4.5 4.5 6.73858 4.5 9.5C4.5 12.2614 6.73858 14.5 9.5 14.5C10.8807 14.5 12.1307 13.9404 13.0355 13.0355ZM13.0355 13.0355L15 15M15 15H15.5858M15 15V15.5858M15.5858 15C15.851 15 16.1054 15.1054 16.2929 15.2929M15.5858 15V15C15.851 15 16.1054 15.1054 16.2929 15.2929V15.2929M16.2929 15.2929L19.5 18.5M18.5 19.5L15.2929 16.2929M15.2929 16.2929C15.1054 16.1054 15 15.851 15 15.5858M15.2929 16.2929V16.2929C15.1054 16.1054 15 15.851 15 15.5858V15.5858M9.5 6.5C11.1569 6.5 12.5 7.84315 12.5 9.5" stroke="#CBD5FF" stroke-linecap="round" stroke-linejoin="round"/>
</g>
</g>
<defs>
<linearGradient id="paint0_linear" x1="4.5" y1="4.5" x2="15.7178" y2="16.8501" gradientUnits="userSpaceOnUse">
<stop stop-color="#434A65"/>
<stop offset="1" stop-color="#373C53"/>
</linearGradient>
<linearGradient id="paint1_linear" x1="4.5" y1="4.5" x2="15.7178" y2="16.8501" gradientUnits="userSpaceOnUse">
<stop stop-color="#434A65"/>
<stop offset="1" stop-color="#373C53"/>
</linearGradient>
</defs>
</svg>
