<svg width="24" height="24" viewBox="0 0 24 24" fill="none" xmlns="http://www.w3.org/2000/svg">
<g id="view-grid">
<g id="Vector">
<path d="M10.5 4.5H4.5V7.5H10.5V4.5Z" fill="url(#paint0_linear)"/>
<path d="M19.5 4.5H13.5V7.5H19.5V4.5Z" fill="url(#paint1_linear)"/>
<path d="M19.5 10.5H13.5V13.5H19.5V10.5Z" fill="url(#paint2_linear)"/>
<path d="M19.5 16.5H13.5V19.5H19.5V16.5Z" fill="url(#paint3_linear)"/>
<path d="M10.5 16.5H4.5V19.5H10.5V16.5Z" fill="url(#paint4_linear)"/>
<path d="M10.5 10.5H4.5V13.5H10.5V10.5Z" fill="url(#paint5_linear)"/>
<path d="M10.5 4.5H4.5V7.5H10.5V4.5Z" stroke="#CBD5FF" stroke-linecap="round" stroke-linejoin="round"/>
<path d="M19.5 4.5H13.5V7.5H19.5V4.5Z" stroke="#CBD5FF" stroke-linecap="round" stroke-linejoin="round"/>
<path d="M19.5 10.5H13.5V13.5H19.5V10.5Z" stroke="#CBD5FF" stroke-linecap="round" stroke-linejoin="round"/>
<path d="M19.5 16.5H13.5V19.5H19.5V16.5Z" stroke="#CBD5FF" stroke-linecap="round" stroke-linejoin="round"/>
<path d="M10.5 16.5H4.5V19.5H10.5V16.5Z" stroke="#CBD5FF" stroke-linecap="round" stroke-linejoin="round"/>
<path d="M10.5 10.5H4.5V13.5H10.5V10.5Z" stroke="#CBD5FF" stroke-linecap="round" stroke-linejoin="round"/>
</g>
</g>
<defs>
<linearGradient id="paint0_linear" x1="4.5" y1="4.5" x2="15.356" y2="16.4517" gradientUnits="userSpaceOnUse">
<stop stop-color="#434A65"/>
<stop offset="1" stop-color="#373C53"/>
</linearGradient>
<linearGradient id="paint1_linear" x1="4.5" y1="4.5" x2="15.356" y2="16.4517" gradientUnits="userSpaceOnUse">
<stop stop-color="#434A65"/>
<stop offset="1" stop-color="#373C53"/>
</linearGradient>
<linearGradient id="paint2_linear" x1="4.5" y1="4.5" x2="15.356" y2="16.4517" gradientUnits="userSpaceOnUse">
<stop stop-color="#434A65"/>
<stop offset="1" stop-color="#373C53"/>
</linearGradient>
<linearGradient id="paint3_linear" x1="4.5" y1="4.5" x2="15.356" y2="16.4517" gradientUnits="userSpaceOnUse">
<stop stop-color="#434A65"/>
<stop offset="1" stop-color="#373C53"/>
</linearGradient>
<linearGradient id="paint4_linear" x1="4.5" y1="4.5" x2="15.356" y2="16.4517" gradientUnits="userSpaceOnUse">
<stop stop-color="#434A65"/>
<stop offset="1" stop-color="#373C53"/>
</linearGradient>
<linearGradient id="paint5_linear" x1="4.5" y1="4.5" x2="15.356" y2="16.4517" gradientUnits="userSpaceOnUse">
<stop stop-color="#434A65"/>
<stop offset="1" stop-color="#373C53"/>
</linearGradient>
</defs>
</svg>
